<?xml version="1.0" encoding="UTF-8"?>
<svg width="512px" height="370px" viewBox="0 0 512 370" version="1.1" xmlns="http://www.w3.org/2000/svg" xmlns:xlink="http://www.w3.org/1999/xlink">
    <!-- Generator: Sketch 52.3 (67297) - http://www.bohemiancoding.com/sketch -->
    <title>youtube</title>
    <desc>Created with Sketch.</desc>
    <g id="Page-1" stroke="none" stroke-width="1" fill="none" fill-rule="evenodd">
        <g id="youtube">
            <path d="M491.719,64.652 C486.061,43.14 469.389,26.197 448.221,20.447 C409.853,9.999 295.348,9.999 256,9.999 C216.652,9.999 102.147,9.999 63.779,20.447 C42.611,26.197 25.939,43.14 20.281,64.652 C10,103.644 10,184.999 10,184.999 C10,184.999 10,266.353 20.281,305.346 C25.939,326.858 42.611,343.801 63.779,349.551 C102.147,359.999 198,359.999 256,359.999 C314,359.999 409.853,359.999 448.221,349.551 C469.389,343.801 486.061,326.858 491.719,305.346 C502,266.353 502,184.999 502,184.999 C502,184.999 502,103.644 491.719,64.652 Z" id="Path" fill="#FF5A5A"></path>
            <path d="M258.503,20.003 C258.494,20.003 258.485,20.003 258.476,20.003 L257.751,20.001 C252.236,19.986 247.776,15.51 247.778,9.998 C247.778,9.99 247.778,9.982 247.778,9.974 C247.793,4.46 252.268,0.001 257.778,0.001 C257.788,0.001 257.796,0.001 257.806,0.001 L258.53,0.003 C264.045,0.018 268.505,4.494 268.503,10.006 C268.503,10.014 268.503,10.022 268.503,10.03 C268.488,15.544 264.013,20.003 258.503,20.003 Z" id="Path" fill="#000000"></path>
            <path d="M256,369.999 C249.664,369.999 100.359,369.876 61.151,359.199 C36.544,352.515 17.175,332.854 10.609,307.889 C0.121,268.107 0,188.374 0,184.999 C0,181.624 0.121,101.891 10.611,62.103 C17.175,37.144 36.544,17.482 61.157,10.797 C87.058,3.744 159.928,1.226 216.497,0.357 C222.005,0.309 226.565,4.68 226.65,10.202 C226.734,15.724 222.327,20.27 216.805,20.354 C138.465,21.559 85.053,25.018 66.406,30.096 C48.67,34.914 34.703,49.129 29.951,67.196 C20.12,104.484 20,184.198 20,184.999 C20,185.799 20.12,265.513 29.95,302.796 C34.703,320.869 48.67,335.084 66.4,339.9 C103.054,349.881 254.475,349.999 256,349.999 C257.525,349.999 408.946,349.882 445.594,339.902 C463.33,335.084 477.297,320.869 482.049,302.802 C491.88,265.513 492,185.799 492,184.998 C492,184.198 491.88,104.484 482.05,67.201 C477.297,49.128 463.33,34.913 445.6,30.097 C427.353,25.128 375.475,21.693 299.515,20.423 C293.993,20.331 289.591,15.779 289.683,10.257 C289.775,4.735 294.359,0.35 299.849,0.425 C354.729,1.342 425.474,3.887 450.849,10.798 C475.456,17.482 494.825,37.143 501.391,62.108 C511.879,101.891 512,181.624 512,184.999 C512,188.374 511.879,268.107 501.389,307.895 C494.825,332.854 475.456,352.516 450.843,359.201 C411.641,369.876 262.336,369.999 256,369.999 Z" id="Path" fill="#000000"></path>
            <polygon id="Path" fill="#FFFFFF" transform="translate(258.000000, 195.000000) rotate(90.000000) translate(-258.000000, -195.000000) " points="196 123 320 195 196 267"></polygon>
            <path d="M58,260.021 C52.477,260.021 48,255.544 48,250.021 L48,168.521 C48,162.998 52.477,158.521 58,158.521 C63.523,158.521 68,162.998 68,168.521 L68,250.021 C68,255.544 63.523,260.021 58,260.021 Z" id="Path" fill="#000000"></path>
            <path d="M58,133.139 C52.477,133.139 48,128.662 48,123.139 L48,123.021 C48,117.498 52.477,113.021 58,113.021 C63.523,113.021 68,117.498 68,123.021 L68,123.139 C68,128.662 63.523,133.139 58,133.139 Z" id="Path" fill="#000000"></path>
            <path d="M195.999884,277.000884 C194.276884,277.000884 192.554884,276.556884 191.010884,275.667884 C187.910884,273.882884 185.999884,270.578884 185.999884,267.000884 L185.999884,123.000884 C185.999884,119.423884 187.910884,116.118884 191.010884,114.333884 C194.110884,112.548884 197.927884,112.555884 201.021884,114.352884 L325.021884,186.352884 C328.103884,188.142884 330.000884,191.436884 330.000884,195.000884 C330.000884,198.564884 328.104884,201.858884 325.021884,203.648884 L201.021884,275.648884 C199.469884,276.550884 197.734884,277.000884 195.999884,277.000884 Z M205.999884,140.370884 L205.999884,249.630884 L300.084884,195.000884 L205.999884,140.370884 Z" id="Shape" fill="#000000" fill-rule="nonzero" transform="translate(258.000384, 195.000500) rotate(90.000000) translate(-258.000384, -195.000500) "></path>
        </g>
    </g>
</svg>